<mxfile host="app.diagrams.net" modified="2024-10-09T11:34:31.077Z" agent="Mozilla/5.0 (Macintosh; Intel Mac OS X 10_15_7) AppleWebKit/537.36 (KHTML, like Gecko) Chrome/129.0.0.0 Safari/537.36" etag="8uwbTBhaaogb_iGNnePq" version="24.5.2" type="github">
  <diagram id="C5RBs43oDa-KdzZeNtuy" name="Page-1">
    <mxGraphModel dx="1375" dy="997" grid="1" gridSize="10" guides="1" tooltips="1" connect="1" arrows="1" fold="1" page="1" pageScale="1" pageWidth="827" pageHeight="1169" math="0" shadow="0">
      <root>
        <mxCell id="WIyWlLk6GJQsqaUBKTNV-0" />
        <mxCell id="WIyWlLk6GJQsqaUBKTNV-1" parent="WIyWlLk6GJQsqaUBKTNV-0" />
        <mxCell id="WIyWlLk6GJQsqaUBKTNV-3" value="Add&amp;nbsp;&lt;div&gt;Outpost&lt;/div&gt;" style="rounded=1;whiteSpace=wrap;html=1;fontSize=12;glass=0;strokeWidth=1;shadow=0;" parent="WIyWlLk6GJQsqaUBKTNV-1" vertex="1">
          <mxGeometry x="160" y="30" width="120" height="40" as="geometry" />
        </mxCell>
        <mxCell id="_vMpIGU0vjKihsTxBn8S-1" value="" style="rounded=0;html=1;jettySize=auto;orthogonalLoop=1;fontSize=11;endArrow=block;endFill=0;endSize=8;strokeWidth=1;shadow=0;labelBackgroundColor=none;edgeStyle=orthogonalEdgeStyle;" edge="1" parent="WIyWlLk6GJQsqaUBKTNV-1" source="WIyWlLk6GJQsqaUBKTNV-3" target="_vMpIGU0vjKihsTxBn8S-0">
          <mxGeometry relative="1" as="geometry">
            <mxPoint x="220" y="70" as="sourcePoint" />
            <mxPoint x="220" y="130" as="targetPoint" />
          </mxGeometry>
        </mxCell>
        <mxCell id="_vMpIGU0vjKihsTxBn8S-27" style="edgeStyle=orthogonalEdgeStyle;rounded=0;orthogonalLoop=1;jettySize=auto;html=1;" edge="1" parent="WIyWlLk6GJQsqaUBKTNV-1" source="_vMpIGU0vjKihsTxBn8S-0" target="_vMpIGU0vjKihsTxBn8S-7">
          <mxGeometry relative="1" as="geometry" />
        </mxCell>
        <mxCell id="_vMpIGU0vjKihsTxBn8S-0" value="Select the account and region&amp;nbsp;&lt;span style=&quot;background-color: initial;&quot;&gt;in which&amp;nbsp;&lt;/span&gt;&lt;span style=&quot;background-color: initial;&quot;&gt;you want to deploy&amp;nbsp;&amp;nbsp;&lt;/span&gt;&lt;span style=&quot;background-color: initial;&quot;&gt;outpost&amp;nbsp;&lt;/span&gt;&lt;div&gt;&lt;div&gt;(Account A)&lt;/div&gt;&lt;/div&gt;" style="rounded=1;whiteSpace=wrap;html=1;fontSize=12;glass=0;strokeWidth=1;shadow=0;" vertex="1" parent="WIyWlLk6GJQsqaUBKTNV-1">
          <mxGeometry x="30" y="120" width="380" height="40" as="geometry" />
        </mxCell>
        <mxCell id="_vMpIGU0vjKihsTxBn8S-42" style="edgeStyle=orthogonalEdgeStyle;rounded=0;orthogonalLoop=1;jettySize=auto;html=1;entryX=0.5;entryY=0;entryDx=0;entryDy=0;" edge="1" parent="WIyWlLk6GJQsqaUBKTNV-1" source="_vMpIGU0vjKihsTxBn8S-2" target="_vMpIGU0vjKihsTxBn8S-4">
          <mxGeometry relative="1" as="geometry" />
        </mxCell>
        <mxCell id="_vMpIGU0vjKihsTxBn8S-63" value="Dynamic logic, AWS apis" style="edgeLabel;html=1;align=center;verticalAlign=middle;resizable=0;points=[];" vertex="1" connectable="0" parent="_vMpIGU0vjKihsTxBn8S-42">
          <mxGeometry x="-0.1" y="-1" relative="1" as="geometry">
            <mxPoint as="offset" />
          </mxGeometry>
        </mxCell>
        <mxCell id="_vMpIGU0vjKihsTxBn8S-60" style="edgeStyle=orthogonalEdgeStyle;rounded=0;orthogonalLoop=1;jettySize=auto;html=1;" edge="1" parent="WIyWlLk6GJQsqaUBKTNV-1" source="_vMpIGU0vjKihsTxBn8S-2">
          <mxGeometry relative="1" as="geometry">
            <mxPoint x="750" y="660" as="targetPoint" />
          </mxGeometry>
        </mxCell>
        <mxCell id="_vMpIGU0vjKihsTxBn8S-61" value="Save" style="edgeLabel;html=1;align=center;verticalAlign=middle;resizable=0;points=[];" vertex="1" connectable="0" parent="_vMpIGU0vjKihsTxBn8S-60">
          <mxGeometry x="-0.0906" relative="1" as="geometry">
            <mxPoint as="offset" />
          </mxGeometry>
        </mxCell>
        <mxCell id="_vMpIGU0vjKihsTxBn8S-2" value="Update the scanners&#39; setting&amp;nbsp;&lt;div&gt;Select cross accounts to be scanned from the drop down&lt;/div&gt;" style="rounded=1;whiteSpace=wrap;html=1;fontSize=12;glass=0;strokeWidth=1;shadow=0;" vertex="1" parent="WIyWlLk6GJQsqaUBKTNV-1">
          <mxGeometry x="34" y="640" width="380" height="40" as="geometry" />
        </mxCell>
        <mxCell id="_vMpIGU0vjKihsTxBn8S-45" value="Dynamic logic, AWS apis" style="edgeStyle=orthogonalEdgeStyle;rounded=0;orthogonalLoop=1;jettySize=auto;html=1;" edge="1" parent="WIyWlLk6GJQsqaUBKTNV-1" source="_vMpIGU0vjKihsTxBn8S-4" target="_vMpIGU0vjKihsTxBn8S-44">
          <mxGeometry relative="1" as="geometry" />
        </mxCell>
        <mxCell id="_vMpIGU0vjKihsTxBn8S-4" value="Create a role and policy with required permission to scan the resources in all the cross accounts" style="rounded=1;whiteSpace=wrap;html=1;fontSize=12;glass=0;strokeWidth=1;shadow=0;" vertex="1" parent="WIyWlLk6GJQsqaUBKTNV-1">
          <mxGeometry x="34" y="740" width="380" height="40" as="geometry" />
        </mxCell>
        <mxCell id="_vMpIGU0vjKihsTxBn8S-28" style="edgeStyle=orthogonalEdgeStyle;rounded=0;orthogonalLoop=1;jettySize=auto;html=1;" edge="1" parent="WIyWlLk6GJQsqaUBKTNV-1" source="WIyWlLk6GJQsqaUBKTNV-6">
          <mxGeometry relative="1" as="geometry">
            <mxPoint x="90" y="270" as="targetPoint" />
          </mxGeometry>
        </mxCell>
        <mxCell id="_vMpIGU0vjKihsTxBn8S-29" value="No" style="edgeLabel;html=1;align=center;verticalAlign=middle;resizable=0;points=[];" vertex="1" connectable="0" parent="_vMpIGU0vjKihsTxBn8S-28">
          <mxGeometry x="0.3846" relative="1" as="geometry">
            <mxPoint as="offset" />
          </mxGeometry>
        </mxCell>
        <mxCell id="_vMpIGU0vjKihsTxBn8S-32" style="edgeStyle=orthogonalEdgeStyle;rounded=0;orthogonalLoop=1;jettySize=auto;html=1;entryX=0.583;entryY=1;entryDx=0;entryDy=0;entryPerimeter=0;" edge="1" parent="WIyWlLk6GJQsqaUBKTNV-1" source="WIyWlLk6GJQsqaUBKTNV-6" target="_vMpIGU0vjKihsTxBn8S-20">
          <mxGeometry relative="1" as="geometry">
            <mxPoint x="570" y="390" as="targetPoint" />
          </mxGeometry>
        </mxCell>
        <mxCell id="_vMpIGU0vjKihsTxBn8S-33" value="Yes&lt;div&gt;&lt;br&gt;&lt;/div&gt;" style="edgeLabel;html=1;align=center;verticalAlign=middle;resizable=0;points=[];" vertex="1" connectable="0" parent="_vMpIGU0vjKihsTxBn8S-32">
          <mxGeometry x="0.0559" y="-4" relative="1" as="geometry">
            <mxPoint as="offset" />
          </mxGeometry>
        </mxCell>
        <mxCell id="_vMpIGU0vjKihsTxBn8S-37" style="edgeStyle=orthogonalEdgeStyle;rounded=0;orthogonalLoop=1;jettySize=auto;html=1;entryX=0.5;entryY=0;entryDx=0;entryDy=0;" edge="1" parent="WIyWlLk6GJQsqaUBKTNV-1" source="WIyWlLk6GJQsqaUBKTNV-6" target="_vMpIGU0vjKihsTxBn8S-36">
          <mxGeometry relative="1" as="geometry" />
        </mxCell>
        <mxCell id="WIyWlLk6GJQsqaUBKTNV-6" value="Scanner deployed?" style="rhombus;whiteSpace=wrap;html=1;shadow=0;fontFamily=Helvetica;fontSize=12;align=center;strokeWidth=1;spacing=6;spacingTop=-4;" parent="WIyWlLk6GJQsqaUBKTNV-1" vertex="1">
          <mxGeometry x="136.25" y="330" width="167.5" height="120" as="geometry" />
        </mxCell>
        <mxCell id="_vMpIGU0vjKihsTxBn8S-19" style="edgeStyle=orthogonalEdgeStyle;rounded=0;orthogonalLoop=1;jettySize=auto;html=1;entryX=0.5;entryY=0;entryDx=0;entryDy=0;" edge="1" parent="WIyWlLk6GJQsqaUBKTNV-1" source="_vMpIGU0vjKihsTxBn8S-7" target="WIyWlLk6GJQsqaUBKTNV-6">
          <mxGeometry relative="1" as="geometry" />
        </mxCell>
        <mxCell id="_vMpIGU0vjKihsTxBn8S-7" value="Deploy the scanner in Account A (Using cloud formation template)" style="rounded=1;whiteSpace=wrap;html=1;fontSize=12;glass=0;strokeWidth=1;shadow=0;" vertex="1" parent="WIyWlLk6GJQsqaUBKTNV-1">
          <mxGeometry x="30" y="230" width="380" height="30" as="geometry" />
        </mxCell>
        <mxCell id="_vMpIGU0vjKihsTxBn8S-49" style="edgeStyle=orthogonalEdgeStyle;rounded=0;orthogonalLoop=1;jettySize=auto;html=1;entryX=0;entryY=0.5;entryDx=0;entryDy=0;" edge="1" parent="WIyWlLk6GJQsqaUBKTNV-1" source="_vMpIGU0vjKihsTxBn8S-20" target="_vMpIGU0vjKihsTxBn8S-48">
          <mxGeometry relative="1" as="geometry" />
        </mxCell>
        <mxCell id="_vMpIGU0vjKihsTxBn8S-20" value="Start scanning" style="whiteSpace=wrap;html=1;" vertex="1" parent="WIyWlLk6GJQsqaUBKTNV-1">
          <mxGeometry x="430" y="260" width="120" height="60" as="geometry" />
        </mxCell>
        <mxCell id="_vMpIGU0vjKihsTxBn8S-38" style="edgeStyle=orthogonalEdgeStyle;rounded=0;orthogonalLoop=1;jettySize=auto;html=1;" edge="1" parent="WIyWlLk6GJQsqaUBKTNV-1" source="_vMpIGU0vjKihsTxBn8S-36">
          <mxGeometry relative="1" as="geometry">
            <mxPoint x="90" y="390" as="targetPoint" />
          </mxGeometry>
        </mxCell>
        <mxCell id="_vMpIGU0vjKihsTxBn8S-39" value="No" style="edgeLabel;html=1;align=center;verticalAlign=middle;resizable=0;points=[];" vertex="1" connectable="0" parent="_vMpIGU0vjKihsTxBn8S-38">
          <mxGeometry x="0.1065" y="2" relative="1" as="geometry">
            <mxPoint as="offset" />
          </mxGeometry>
        </mxCell>
        <mxCell id="_vMpIGU0vjKihsTxBn8S-40" style="edgeStyle=orthogonalEdgeStyle;rounded=0;orthogonalLoop=1;jettySize=auto;html=1;entryX=0.5;entryY=0;entryDx=0;entryDy=0;" edge="1" parent="WIyWlLk6GJQsqaUBKTNV-1" source="_vMpIGU0vjKihsTxBn8S-36" target="_vMpIGU0vjKihsTxBn8S-2">
          <mxGeometry relative="1" as="geometry" />
        </mxCell>
        <mxCell id="_vMpIGU0vjKihsTxBn8S-41" value="Yes" style="edgeLabel;html=1;align=center;verticalAlign=middle;resizable=0;points=[];" vertex="1" connectable="0" parent="_vMpIGU0vjKihsTxBn8S-40">
          <mxGeometry x="-0.2" y="-1" relative="1" as="geometry">
            <mxPoint as="offset" />
          </mxGeometry>
        </mxCell>
        <mxCell id="_vMpIGU0vjKihsTxBn8S-36" value="Scanner Active?" style="rhombus;whiteSpace=wrap;html=1;" vertex="1" parent="WIyWlLk6GJQsqaUBKTNV-1">
          <mxGeometry x="180" y="500" width="80" height="80" as="geometry" />
        </mxCell>
        <mxCell id="_vMpIGU0vjKihsTxBn8S-44" value="Update the scanner&#39;s policy in Account A to assume role of cross accounts" style="rounded=1;whiteSpace=wrap;html=1;fontSize=12;glass=0;strokeWidth=1;shadow=0;" vertex="1" parent="WIyWlLk6GJQsqaUBKTNV-1">
          <mxGeometry x="34" y="830" width="380" height="40" as="geometry" />
        </mxCell>
        <mxCell id="_vMpIGU0vjKihsTxBn8S-50" style="edgeStyle=orthogonalEdgeStyle;rounded=0;orthogonalLoop=1;jettySize=auto;html=1;entryX=1;entryY=0.5;entryDx=0;entryDy=0;" edge="1" parent="WIyWlLk6GJQsqaUBKTNV-1" source="_vMpIGU0vjKihsTxBn8S-48" target="_vMpIGU0vjKihsTxBn8S-20">
          <mxGeometry relative="1" as="geometry" />
        </mxCell>
        <mxCell id="_vMpIGU0vjKihsTxBn8S-51" value="Next resource&lt;div&gt;&amp;nbsp;to scan&lt;/div&gt;" style="edgeLabel;html=1;align=center;verticalAlign=middle;resizable=0;points=[];" vertex="1" connectable="0" parent="_vMpIGU0vjKihsTxBn8S-50">
          <mxGeometry x="0.025" relative="1" as="geometry">
            <mxPoint as="offset" />
          </mxGeometry>
        </mxCell>
        <mxCell id="_vMpIGU0vjKihsTxBn8S-57" style="edgeStyle=orthogonalEdgeStyle;rounded=0;orthogonalLoop=1;jettySize=auto;html=1;entryX=0.5;entryY=1;entryDx=0;entryDy=0;" edge="1" parent="WIyWlLk6GJQsqaUBKTNV-1" source="_vMpIGU0vjKihsTxBn8S-48">
          <mxGeometry relative="1" as="geometry">
            <mxPoint x="760" y="180" as="targetPoint" />
          </mxGeometry>
        </mxCell>
        <mxCell id="_vMpIGU0vjKihsTxBn8S-48" value="Scan Analysis Backend Service" style="whiteSpace=wrap;html=1;" vertex="1" parent="WIyWlLk6GJQsqaUBKTNV-1">
          <mxGeometry x="700" y="260" width="120" height="60" as="geometry" />
        </mxCell>
        <mxCell id="_vMpIGU0vjKihsTxBn8S-52" style="edgeStyle=orthogonalEdgeStyle;rounded=0;orthogonalLoop=1;jettySize=auto;html=1;entryX=0.425;entryY=1.067;entryDx=0;entryDy=0;entryPerimeter=0;" edge="1" parent="WIyWlLk6GJQsqaUBKTNV-1" source="_vMpIGU0vjKihsTxBn8S-44" target="_vMpIGU0vjKihsTxBn8S-48">
          <mxGeometry relative="1" as="geometry" />
        </mxCell>
        <mxCell id="_vMpIGU0vjKihsTxBn8S-58" style="edgeStyle=orthogonalEdgeStyle;rounded=0;orthogonalLoop=1;jettySize=auto;html=1;" edge="1" parent="WIyWlLk6GJQsqaUBKTNV-1">
          <mxGeometry relative="1" as="geometry">
            <mxPoint x="760" y="260" as="targetPoint" />
            <mxPoint x="760" y="180" as="sourcePoint" />
          </mxGeometry>
        </mxCell>
        <mxCell id="_vMpIGU0vjKihsTxBn8S-59" value="CRUD" style="edgeLabel;html=1;align=center;verticalAlign=middle;resizable=0;points=[];" vertex="1" connectable="0" parent="_vMpIGU0vjKihsTxBn8S-58">
          <mxGeometry x="-0.2795" y="-1" relative="1" as="geometry">
            <mxPoint as="offset" />
          </mxGeometry>
        </mxCell>
        <mxCell id="_vMpIGU0vjKihsTxBn8S-62" value="&lt;div&gt;&lt;br&gt;&lt;/div&gt;&lt;div&gt;&lt;br&gt;&lt;/div&gt;Scanner&#39;s setting for cross account scanning" style="strokeWidth=2;html=1;shape=mxgraph.flowchart.database;whiteSpace=wrap;" vertex="1" parent="WIyWlLk6GJQsqaUBKTNV-1">
          <mxGeometry x="705" y="80" width="110" height="100" as="geometry" />
        </mxCell>
      </root>
    </mxGraphModel>
  </diagram>
</mxfile>
